<svg width="51" height="51" viewBox="0 0 51 51" fill="none" xmlns="http://www.w3.org/2000/svg">
<path d="M39.2926 42.2073L39.2927 42.2073C39.6814 42.5961 40.1558 42.7915 40.75 42.7915C41.3443 42.7915 41.8187 42.5961 42.2074 42.2073C42.5961 41.8186 42.7917 41.3441 42.7917 40.7499C42.7917 40.1557 42.5962 39.6813 42.2075 39.2925C42.2075 39.2925 42.2074 39.2925 42.2074 39.2925M39.2926 42.2073L38.9391 38.9389C39.4263 38.4518 40.0299 38.2082 40.75 38.2082C41.4702 38.2082 42.0738 38.4518 42.561 38.9389L42.2074 39.2925M39.2926 42.2073C38.9039 41.8186 38.7084 41.3442 38.7084 40.7499M39.2926 42.2073L38.7084 40.7499M42.2074 39.2925C41.8186 38.9038 41.3442 38.7082 40.75 38.7082C40.1559 38.7082 39.6815 38.9038 39.2927 39.2925M42.2074 39.2925L39.2927 39.2925M39.2927 39.2925C38.9039 39.6813 38.7084 40.1556 38.7084 40.7499M39.2927 39.2925L38.7084 40.7499M8.79264 42.2073L8.79267 42.2073C9.1814 42.5961 9.65578 42.7915 10.25 42.7915H33.125C33.7193 42.7915 34.1937 42.5961 34.5824 42.2073C34.9711 41.8186 35.1667 41.3441 35.1667 40.7499C35.1667 40.1557 34.9712 39.6813 34.5825 39.2925C34.5825 39.2925 34.5824 39.2925 34.5824 39.2925M8.79264 42.2073L8.4391 38.9389C8.92626 38.4518 9.5299 38.2082 10.25 38.2082H33.125C33.8452 38.2082 34.4488 38.4518 34.936 38.9389L34.5824 39.2925M8.79264 42.2073C8.40391 41.8186 8.20837 41.3441 8.20837 40.7499C8.20837 40.1557 8.40388 39.6813 8.79263 39.2925M8.79264 42.2073L8.79263 39.2925M34.5824 39.2925C34.1936 38.9038 33.7192 38.7082 33.125 38.7082H10.25C9.65583 38.7082 9.18141 38.9038 8.79263 39.2925M34.5824 39.2925L8.79263 39.2925M11.3344 49.8323L11.3343 49.8323C10.9455 49.4436 10.75 48.9691 10.75 48.3749C10.75 47.7807 10.9455 47.3063 11.3344 46.9175C11.7231 46.5288 12.1975 46.3332 12.7917 46.3332C13.3859 46.3332 13.8603 46.5288 14.249 46.9175C14.6379 47.3063 14.8334 47.7807 14.8334 48.3749C14.8334 48.9691 14.6379 49.4436 14.2491 49.8323L14.249 49.8323C13.8604 50.2211 13.3859 50.4165 12.7917 50.4165C12.1975 50.4165 11.723 50.2211 11.3344 49.8323ZM18.9594 49.8323L18.9593 49.8323C18.5705 49.4436 18.375 48.9691 18.375 48.3749C18.375 47.7807 18.5705 47.3063 18.9594 46.9175C19.3481 46.5288 19.8225 46.3332 20.4167 46.3332H38.2084C38.8026 46.3332 39.277 46.5288 39.6657 46.9175C40.0545 47.3063 40.25 47.7806 40.25 48.3749C40.25 48.9692 40.0545 49.4436 39.6658 49.8323L39.6657 49.8323C39.2771 50.2211 38.8026 50.4165 38.2084 50.4165H20.4167C19.8225 50.4165 19.348 50.2211 18.9594 49.8323ZM12.2871 8.33079L12.5339 8.29728L12.6558 8.08011C13.9687 5.74159 15.7593 3.91093 18.0324 2.57982C20.3047 1.24918 22.7906 0.583252 25.5 0.583252C29.1955 0.583252 32.3935 1.75992 35.1173 4.11512C37.8464 6.47493 39.4919 9.40928 40.0659 12.9355L40.1284 13.3195L40.5161 13.3533C43.3146 13.5966 45.656 14.7469 47.5625 16.8159L47.9302 16.477L47.5625 16.8159C49.4662 18.8816 50.4167 21.3437 50.4167 24.229C50.4167 27.275 49.3563 29.848 47.2272 31.9771C45.0981 34.1062 42.5252 35.1665 39.4792 35.1665H14.0625C10.3407 35.1665 7.17413 33.8534 4.53536 31.2146C1.89659 28.5758 0.583374 25.4093 0.583374 21.6874C0.583374 18.2935 1.70362 15.3404 3.95221 12.8056C6.20389 10.2674 8.9762 8.78042 12.2871 8.33079ZM44.3443 29.0941L43.9907 28.7405L44.3443 29.0941C45.6689 27.7693 46.3334 26.1373 46.3334 24.229C46.3334 22.3209 45.6689 20.6888 44.3443 19.3641L43.9907 19.7176L44.3443 19.3641C43.0195 18.0393 41.3874 17.3749 39.4792 17.3749H36.1667V15.3332C36.1667 12.4038 35.1178 9.8835 33.0338 7.79949C30.9498 5.71549 28.4296 4.66659 25.5 4.66659C23.3705 4.66659 21.4214 5.24506 19.6652 6.40102L19.9401 6.81867L19.6652 6.40103C17.9114 7.55545 16.5895 9.11195 15.7042 11.0596L15.7009 11.0669L15.6979 11.0742L15.1907 12.2915H13.9355H13.9267L13.918 12.2918C11.3763 12.3811 9.19129 13.3338 7.38659 15.1386C5.57771 16.9474 4.66671 19.1395 4.66671 21.6874C4.66671 24.2769 5.58776 26.501 7.41837 28.3316C9.24897 30.1622 11.473 31.0832 14.0625 31.0832H39.4792C41.3874 31.0832 43.0195 30.4189 44.3443 29.0941Z" fill="#C1BEFF" stroke="#7171CC"/>
</svg>
