<svg width="51" height="51" viewBox="0 0 51 51" fill="none" xmlns="http://www.w3.org/2000/svg">
<path d="M40.75 43.2916C40.0299 43.2916 39.4263 43.0481 38.9391 42.5609C38.4519 42.0738 38.2084 41.4701 38.2084 40.75C38.2084 40.0298 38.4519 39.4262 38.9391 38.939C39.4263 38.4519 40.0299 38.2083 40.75 38.2083C41.4702 38.2083 42.0738 38.4519 42.561 38.939C43.0481 39.4262 43.2917 40.0298 43.2917 40.75C43.2917 41.4701 43.0481 42.0738 42.561 42.5609C42.0738 43.0481 41.4702 43.2916 40.75 43.2916ZM12.7917 50.9166C12.0716 50.9166 11.4679 50.6731 10.9808 50.1859C10.4936 49.6988 10.25 49.0951 10.25 48.375C10.25 47.6548 10.4936 47.0512 10.9808 46.564C11.4679 46.0769 12.0716 45.8333 12.7917 45.8333C13.5118 45.8333 14.1155 46.0769 14.6026 46.564C15.0898 47.0512 15.3334 47.6548 15.3334 48.375C15.3334 49.0951 15.0898 49.6988 14.6026 50.1859C14.1155 50.6731 13.5118 50.9166 12.7917 50.9166ZM10.25 43.2916C9.5299 43.2916 8.92626 43.0481 8.4391 42.5609C7.95195 42.0738 7.70837 41.4701 7.70837 40.75C7.70837 40.0298 7.95195 39.4262 8.4391 38.939C8.92626 38.4519 9.5299 38.2083 10.25 38.2083H33.125C33.8452 38.2083 34.4488 38.4519 34.936 38.939C35.4231 39.4262 35.6667 40.0298 35.6667 40.75C35.6667 41.4701 35.4231 42.0738 34.936 42.5609C34.4488 43.0481 33.8452 43.2916 33.125 43.2916H10.25ZM20.4167 50.9166C19.6966 50.9166 19.0929 50.6731 18.6058 50.1859C18.1186 49.6988 17.875 49.0951 17.875 48.375C17.875 47.6548 18.1186 47.0512 18.6058 46.564C19.0929 46.0769 19.6966 45.8333 20.4167 45.8333H38.2084C38.9285 45.8333 39.5322 46.0769 40.0193 46.564C40.5065 47.0512 40.75 47.6548 40.75 48.375C40.75 49.0951 40.5065 49.6988 40.0193 50.1859C39.5322 50.6731 38.9285 50.9166 38.2084 50.9166H20.4167ZM14.0625 35.6666C10.2077 35.6666 6.9141 34.3005 4.18181 31.5682C1.44952 28.8359 0.083374 25.5423 0.083374 21.6875C0.083374 18.1715 1.2483 15.1003 3.57817 12.4739C5.90803 9.84755 8.78858 8.30137 12.2198 7.8354C13.5754 5.42081 15.4287 3.52515 17.7797 2.14842C20.1308 0.771681 22.7042 0.083313 25.5 0.083313C29.3125 0.083313 32.6273 1.30119 35.4443 3.73696C38.2613 6.17272 39.9664 9.21213 40.5594 12.8552C43.4823 13.1094 45.9393 14.3166 47.9302 16.4771C49.9212 18.6375 50.9167 21.2215 50.9167 24.2291C50.9167 27.4062 49.8047 30.1068 47.5808 32.3307C45.3568 34.5547 42.6563 35.6666 39.4792 35.6666H14.0625ZM14.0625 30.5833H39.4792C41.2584 30.5833 42.7622 29.9691 43.9907 28.7406C45.2191 27.5121 45.8334 26.0083 45.8334 24.2291C45.8334 22.45 45.2191 20.9462 43.9907 19.7177C42.7622 18.4892 41.2584 17.875 39.4792 17.875H35.6667V15.3333C35.6667 12.5375 34.6712 10.1441 32.6802 8.1531C30.6893 6.16213 28.2959 5.16665 25.5 5.16665C23.4667 5.16665 21.6134 5.71734 19.9401 6.81873C18.2669 7.92012 17.0066 9.40276 16.1594 11.2666L15.524 12.7916H13.9355C11.5209 12.8764 9.45577 13.7765 7.74014 15.4922C6.02452 17.2078 5.16671 19.2729 5.16671 21.6875C5.16671 24.1444 6.03511 26.2413 7.77192 27.9781C9.50872 29.7149 11.6056 30.5833 14.0625 30.5833Z" fill="#7171CC"/>
</svg>
